<svg width="1204" height="529" viewBox="0 0 1204 529" fill="none" xmlns="http://www.w3.org/2000/svg">
<path d="M774.35 489.292C774.35 491.147 772.891 492.653 771.094 492.653C769.297 492.653 767.837 491.147 767.837 489.292C767.837 487.437 769.297 485.93 771.094 485.93C772.891 485.93 774.35 487.433 774.35 489.292Z" stroke="white" stroke-opacity="0.06" stroke-width="2" stroke-miterlimit="10" stroke-linecap="round" stroke-linejoin="round"/>
<path d="M805.947 518.446C807.746 518.446 809.204 516.941 809.204 515.085C809.204 513.228 807.746 511.723 805.947 511.723C804.149 511.723 802.691 513.228 802.691 515.085C802.691 516.941 804.149 518.446 805.947 518.446Z" stroke="white" stroke-opacity="0.06" stroke-width="2" stroke-miterlimit="10" stroke-linecap="round" stroke-linejoin="round"/>
<path d="M793.686 508.174C797.522 508.174 800.632 504.964 800.632 501.004C800.632 497.045 797.522 493.835 793.686 493.835C789.85 493.835 786.74 497.045 786.74 501.004C786.74 504.964 789.85 508.174 793.686 508.174Z" stroke="white" stroke-opacity="0.06" stroke-width="2" stroke-miterlimit="10" stroke-linecap="round" stroke-linejoin="round"/>
<path d="M805.788 501.004L803.472 505.184L802.243 509.837L797.739 511.101L793.686 513.496L789.633 511.101L785.125 509.837L783.901 505.184L781.581 501.004L783.901 496.821L785.125 492.168L789.633 490.904L793.686 488.509L797.739 490.904L802.243 492.168L803.472 496.821L805.788 501.004Z" stroke="white" stroke-opacity="0.06" stroke-width="2" stroke-miterlimit="10" stroke-linecap="round" stroke-linejoin="round"/>
<path d="M802.691 515.085C802.691 513.23 804.15 511.723 805.947 511.723C806.918 511.723 807.79 512.165 808.385 512.862C810.865 509.59 812.347 505.477 812.347 501C812.347 490.36 803.991 481.735 793.682 481.735C783.374 481.735 775.018 490.36 775.018 501C775.018 511.641 783.374 520.266 793.682 520.266C797.307 520.266 800.685 519.198 803.547 517.354C803.02 516.756 802.691 515.961 802.691 515.085Z" stroke="white" stroke-opacity="0.06" stroke-width="2" stroke-miterlimit="10" stroke-linecap="round" stroke-linejoin="round"/>
<path d="M793.686 474.933C784.978 474.933 777.296 479.485 772.758 486.407C773.71 486.994 774.351 488.067 774.351 489.295C774.351 491.15 772.891 492.657 771.094 492.657C770.65 492.657 770.229 492.563 769.847 492.399C768.933 495.095 768.432 497.987 768.432 501.004C768.432 515.401 779.742 527.075 793.69 527.075C807.638 527.075 818.948 515.401 818.948 501.004C818.948 486.607 807.634 474.933 793.686 474.933Z" stroke="white" stroke-opacity="0.06" stroke-width="2" stroke-miterlimit="10" stroke-linecap="round" stroke-linejoin="round"/>
<path d="M869.259 56.5937L853.589 51.1002C851.933 50.5212 851.049 48.6637 851.61 46.9545C852.171 45.2453 853.97 44.3328 855.622 44.9118L871.292 50.4054C872.948 50.9844 873.832 52.8418 873.271 54.5464C872.71 56.2602 870.915 57.1773 869.259 56.5937Z" stroke="white" stroke-opacity="0.06" stroke-width="3" stroke-miterlimit="10"/>
<path d="M867.199 62.8562L851.529 57.3626C849.873 56.7836 848.989 54.9262 849.55 53.2216C850.111 51.5124 851.91 50.5999 853.566 51.1789L869.237 56.6678C870.893 57.2468 871.777 59.1043 871.216 60.8135C870.65 62.5227 868.855 63.4352 867.199 62.8562Z" stroke="white" stroke-opacity="0.06" stroke-width="3" stroke-miterlimit="10"/>
<path d="M853.27 28.0189C853.288 28.0745 853.302 28.1255 853.32 28.1811C853.67 29.3344 855.734 36.6437 854.872 44.7543L871.682 50.4795C875.667 43.4342 881.542 38.8346 882.488 38.1213C882.533 38.0889 882.578 38.0565 882.619 38.024C883.076 37.6859 883.52 37.3246 883.951 36.9401C886.482 34.6844 888.475 31.7153 889.597 28.2042C892.904 17.8656 887.465 6.71642 877.449 3.30264C867.433 -0.111134 856.631 5.50284 853.324 15.8414C852.198 19.3571 852.085 22.9655 852.821 26.3329C852.947 26.898 853.095 27.4631 853.27 28.0189Z" stroke="white" stroke-opacity="0.06" stroke-width="3" stroke-miterlimit="10"/>
<path d="M852.386 57.7424C852.198 61.1701 854.244 64.4356 857.556 65.5658C860.823 66.6775 864.3 65.3574 866.149 62.5643L852.386 57.7424Z" stroke="white" stroke-opacity="0.06" stroke-width="3" stroke-miterlimit="10"/>
<path d="M860.136 46.4543L865.131 30.8306C865.624 29.2928 864.812 27.6345 863.322 27.125C861.832 26.6155 860.226 27.4539 859.732 28.9917C859.239 30.5295 860.051 32.1878 861.541 32.6973L867.536 34.74" stroke="white" stroke-opacity="0.06" stroke-width="3" stroke-miterlimit="10"/>
<path d="M866.724 48.7008L871.718 33.0771C872.212 31.5393 873.818 30.7055 875.308 31.2104C876.798 31.7199 877.606 33.3781 877.117 34.916C876.623 36.4538 875.017 37.2876 873.527 36.7827L867.531 34.7399" stroke="white" stroke-opacity="0.06" stroke-width="3" stroke-miterlimit="10"/>
<path d="M893.146 33.5867L898.208 35.3144" stroke="white" stroke-opacity="0.06" stroke-width="3" stroke-miterlimit="10" stroke-linecap="round"/>
<path d="M895.466 27.0047L900.739 26.1848" stroke="white" stroke-opacity="0.06" stroke-width="3" stroke-miterlimit="10" stroke-linecap="round"/>
<path d="M889.605 39.2332L893.366 43.1333" stroke="white" stroke-opacity="0.06" stroke-width="3" stroke-miterlimit="10" stroke-linecap="round"/>
<path d="M846.13 17.5693L841.068 15.8462" stroke="white" stroke-opacity="0.06" stroke-width="3" stroke-miterlimit="10" stroke-linecap="round"/>
<path d="M848.065 10.8528L844.304 6.95264" stroke="white" stroke-opacity="0.06" stroke-width="3" stroke-miterlimit="10" stroke-linecap="round"/>
<path d="M845.722 24.281L840.454 25.1009" stroke="white" stroke-opacity="0.06" stroke-width="3" stroke-miterlimit="10" stroke-linecap="round"/>
<path d="M710.68 110.972L664.149 96.6249C660.765 95.5826 658.844 91.9062 659.854 88.413L669.146 56.2902C670.156 52.797 673.718 50.8142 677.102 51.8565L723.634 66.2039C727.018 67.2461 728.939 70.9226 727.929 74.4158L718.636 106.539C717.623 110.028 714.061 112.015 710.68 110.972Z" stroke="white" stroke-opacity="0.06" stroke-width="4" stroke-miterlimit="10" stroke-linecap="round"/>
<path d="M660.95 84.6145L719.733 102.74" stroke="white" stroke-opacity="0.06" stroke-width="4" stroke-miterlimit="10" stroke-linecap="round"/>
<path d="M690.485 98.9416C690.233 99.8129 689.341 100.31 688.497 100.049C687.653 99.7884 687.172 98.8683 687.424 97.997C687.677 97.1258 688.568 96.6291 689.412 96.8896C690.256 97.1502 690.737 98.0703 690.485 98.9416Z" fill="#4D2C5E" fill-opacity="0.5"/>
<path d="M694.009 105.837L680.83 101.774L679.054 107.91L692.233 111.973L694.009 105.837Z" stroke="white" stroke-opacity="0.06" stroke-width="4" stroke-miterlimit="10" stroke-linecap="round"/>
<path d="M674.167 106.754L696.919 113.769" stroke="white" stroke-opacity="0.06" stroke-width="4" stroke-miterlimit="10" stroke-linecap="round"/>
<path d="M1163.01 60.3482C1177.59 60.3482 1189.42 54.5628 1189.42 47.4261C1189.42 40.2893 1177.59 34.5039 1163.01 34.5039C1148.42 34.5039 1136.6 40.2893 1136.6 47.4261C1136.6 54.5628 1148.42 60.3482 1163.01 60.3482Z" stroke="white" stroke-opacity="0.06" stroke-width="3" stroke-miterlimit="10" stroke-linecap="round" stroke-linejoin="round"/>
<path d="M1173.69 54.1618C1181.27 41.3025 1182.63 27.8695 1176.73 24.1584C1170.82 20.4473 1159.89 27.8635 1152.3 40.7228C1144.72 53.5821 1143.36 67.015 1149.26 70.7261C1155.17 74.4372 1166.1 67.0211 1173.69 54.1618Z" stroke="white" stroke-opacity="0.06" stroke-width="3" stroke-miterlimit="10" stroke-linecap="round" stroke-linejoin="round"/>
<path d="M1176.72 70.7202C1182.63 67.0092 1181.27 53.5762 1173.68 40.7169C1166.1 27.8576 1155.16 20.4415 1149.26 24.1526C1143.35 27.8636 1144.71 41.2966 1152.3 54.1559C1159.88 67.0152 1170.82 74.4313 1176.72 70.7202Z" stroke="white" stroke-opacity="0.06" stroke-width="3" stroke-miterlimit="10" stroke-linecap="round" stroke-linejoin="round"/>
<path d="M1163.01 50.8468C1164.84 50.8468 1166.32 49.3153 1166.32 47.4261C1166.32 45.5369 1164.84 44.0054 1163.01 44.0054C1161.18 44.0054 1159.69 45.5369 1159.69 47.4261C1159.69 49.3153 1161.18 50.8468 1163.01 50.8468Z" stroke="white" stroke-opacity="0.06" stroke-width="3" stroke-miterlimit="10" stroke-linecap="round" stroke-linejoin="round"/>
<path d="M1172.3 455.252L1150.49 460.449L1149.51 456.061C1149.28 455.044 1149.89 454.032 1150.88 453.795L1169.12 449.446C1170.11 449.213 1171.09 449.843 1171.32 450.86L1172.3 455.252Z" stroke="white" stroke-opacity="0.06" stroke-width="3" stroke-miterlimit="10" stroke-linecap="round"/>
<path d="M1165.13 431.657C1174.74 423.656 1176.25 409.128 1168.5 399.206C1160.75 389.284 1146.67 387.726 1137.06 395.726C1127.45 403.726 1125.94 418.254 1133.69 428.176C1141.44 438.099 1155.52 439.657 1165.13 431.657Z" stroke="white" stroke-opacity="0.06" stroke-width="3" stroke-miterlimit="10"/>
<path d="M1161.5 434.108L1140.65 393.281L1138.05 388.327C1124.45 395.722 1119.25 413.089 1126.41 427.119C1133.57 441.15 1150.4 446.525 1163.99 439.13L1161.44 434.142" stroke="white" stroke-opacity="0.06" stroke-width="3" stroke-miterlimit="10" stroke-linecap="round" stroke-linejoin="round"/>
<path d="M1145.25 402.227C1152.07 398.512 1156.58 393.492 1155.31 391.015C1154.05 388.538 1147.49 389.541 1140.66 393.256C1133.84 396.971 1129.33 401.991 1130.59 404.468C1131.86 406.946 1138.42 405.942 1145.25 402.227Z" stroke="white" stroke-opacity="0.06" stroke-width="3" stroke-miterlimit="10"/>
<path d="M1146.85 436.35C1151.67 437.309 1156.82 436.655 1161.5 434.108C1166.18 431.56 1169.62 427.541 1171.57 422.896C1166.76 421.937 1161.6 422.591 1156.92 425.139C1152.24 427.686 1148.8 431.706 1146.85 436.35Z" stroke="white" stroke-opacity="0.06" stroke-width="3" stroke-miterlimit="10"/>
<path d="M1161.52 434.083C1166.98 431.111 1166.74 419.563 1160.98 408.288C1155.22 397.014 1146.12 390.283 1140.66 393.255C1135.2 396.226 1135.45 407.775 1141.2 419.049C1146.96 430.324 1156.06 437.054 1161.52 434.083Z" stroke="white" stroke-opacity="0.06" stroke-width="3" stroke-miterlimit="10"/>
<path d="M1131.3 424.456L1170.85 402.933" stroke="white" stroke-opacity="0.06" stroke-width="3" stroke-miterlimit="10"/>
<path d="M1157.57 441.644L1159.88 451.581" stroke="white" stroke-opacity="0.06" stroke-width="3" stroke-miterlimit="10"/>
<path d="M1147.87 461.374L1175.67 454.492" stroke="white" stroke-opacity="0.06" stroke-width="3" stroke-miterlimit="10" stroke-linecap="round"/>
<path d="M1187.22 311.16L1198.85 299.15L1166.61 265.872L1154.98 277.882L1187.22 311.16Z" stroke="white" stroke-opacity="0.06" stroke-width="3" stroke-miterlimit="10" stroke-linecap="round" stroke-linejoin="round"/>
<path d="M1202 314.409L1198.85 299.148L1187.21 311.158L1202 314.409Z" stroke="white" stroke-opacity="0.06" stroke-width="3" stroke-miterlimit="10" stroke-linecap="round" stroke-linejoin="round"/>
<path d="M1200.53 307.289L1195.1 312.892" stroke="white" stroke-opacity="0.06" stroke-width="3" stroke-miterlimit="10" stroke-linecap="round" stroke-linejoin="round"/>
<path d="M1151.55 268.725L1157.74 262.34C1159.24 260.786 1161.68 260.786 1163.19 262.34L1166.61 265.871L1154.97 277.881L1151.55 274.35C1150.04 272.796 1150.04 270.274 1151.55 268.725Z" stroke="white" stroke-opacity="0.06" stroke-width="3" stroke-miterlimit="10" stroke-linecap="round" stroke-linejoin="round"/>
<path d="M1169.75 269.111L1158.11 281.127" stroke="white" stroke-opacity="0.06" stroke-width="3" stroke-miterlimit="10" stroke-linecap="round" stroke-linejoin="round"/>
<path d="M1193.03 305.153L1163.93 275.122" stroke="white" stroke-opacity="0.06" stroke-width="3" stroke-miterlimit="10" stroke-linecap="round" stroke-linejoin="round"/>
<path d="M277.758 456.338L275.486 461.376" stroke="white" stroke-opacity="0.06" stroke-width="4" stroke-miterlimit="10" stroke-linecap="round" stroke-linejoin="round"/>
<path d="M293.301 463.376L291.03 468.415" stroke="white" stroke-opacity="0.06" stroke-width="4" stroke-miterlimit="10" stroke-linecap="round" stroke-linejoin="round"/>
<path d="M308.85 470.411L306.578 475.449" stroke="white" stroke-opacity="0.06" stroke-width="4" stroke-miterlimit="10" stroke-linecap="round" stroke-linejoin="round"/>
<path d="M267.322 451.629L266.185 454.152" stroke="white" stroke-opacity="0.06" stroke-width="4" stroke-miterlimit="10" stroke-linecap="round" stroke-linejoin="round"/>
<path d="M272.523 453.987L271.388 456.503" stroke="white" stroke-opacity="0.06" stroke-width="4" stroke-miterlimit="10" stroke-linecap="round" stroke-linejoin="round"/>
<path d="M282.896 458.678L281.76 461.201" stroke="white" stroke-opacity="0.06" stroke-width="4" stroke-miterlimit="10" stroke-linecap="round" stroke-linejoin="round"/>
<path d="M288.094 461.032L286.962 463.552" stroke="white" stroke-opacity="0.06" stroke-width="4" stroke-miterlimit="10" stroke-linecap="round" stroke-linejoin="round"/>
<path d="M298.471 465.727L297.335 468.25" stroke="white" stroke-opacity="0.06" stroke-width="4" stroke-miterlimit="10" stroke-linecap="round" stroke-linejoin="round"/>
<path d="M314.271 472.879L313.139 475.399" stroke="white" stroke-opacity="0.06" stroke-width="4" stroke-miterlimit="10" stroke-linecap="round" stroke-linejoin="round"/>
<path d="M303.669 468.081L302.537 470.601" stroke="white" stroke-opacity="0.06" stroke-width="4" stroke-miterlimit="10" stroke-linecap="round" stroke-linejoin="round"/>
<path d="M304.315 513.167L254.203 446.63L321.426 475.173L304.315 513.167Z" stroke="white" stroke-opacity="0.06" stroke-width="4" stroke-miterlimit="10" stroke-linecap="round" stroke-linejoin="round"/>
<path d="M302.503 491.861L288.794 473.659L307.182 481.463L302.503 491.861Z" stroke="white" stroke-opacity="0.06" stroke-width="4" stroke-miterlimit="10" stroke-linecap="round" stroke-linejoin="round"/>
<path d="M430.824 17.5719L411.477 27.2273L450.039 109.549L469.385 99.8932L430.824 17.5719Z" stroke="white" stroke-opacity="0.06" stroke-width="4" stroke-miterlimit="10" stroke-linecap="round" stroke-linejoin="round"/>
<path d="M435.441 27.4502L425.772 32.2736" stroke="white" stroke-opacity="0.06" stroke-width="4" stroke-miterlimit="10" stroke-linecap="round" stroke-linejoin="round"/>
<path d="M444.377 46.522L434.701 51.3524" stroke="white" stroke-opacity="0.06" stroke-width="4" stroke-miterlimit="10" stroke-linecap="round" stroke-linejoin="round"/>
<path d="M453.312 65.5938L443.637 70.4242" stroke="white" stroke-opacity="0.06" stroke-width="4" stroke-miterlimit="10" stroke-linecap="round" stroke-linejoin="round"/>
<path d="M462.242 84.6726L452.573 89.4961" stroke="white" stroke-opacity="0.06" stroke-width="4" stroke-miterlimit="10" stroke-linecap="round" stroke-linejoin="round"/>
<path d="M438.399 33.7659L433.565 36.1741" stroke="white" stroke-opacity="0.06" stroke-width="4" stroke-miterlimit="10" stroke-linecap="round" stroke-linejoin="round"/>
<path d="M441.384 40.144L436.55 42.5592" stroke="white" stroke-opacity="0.06" stroke-width="4" stroke-miterlimit="10" stroke-linecap="round" stroke-linejoin="round"/>
<path d="M447.348 52.8723L442.514 55.2806" stroke="white" stroke-opacity="0.06" stroke-width="4" stroke-miterlimit="10" stroke-linecap="round" stroke-linejoin="round"/>
<path d="M450.334 59.2505L445.499 61.6657" stroke="white" stroke-opacity="0.06" stroke-width="4" stroke-miterlimit="10" stroke-linecap="round" stroke-linejoin="round"/>
<path d="M456.298 71.9788L451.463 74.387" stroke="white" stroke-opacity="0.06" stroke-width="4" stroke-miterlimit="10" stroke-linecap="round" stroke-linejoin="round"/>
<path d="M459.29 78.3569L454.449 80.7721" stroke="white" stroke-opacity="0.06" stroke-width="4" stroke-miterlimit="10" stroke-linecap="round" stroke-linejoin="round"/>
<path d="M27.5508 434.424L6.55251 444.605C5.42964 445.153 4.09164 444.654 3.56047 443.495L2.21571 440.538C1.68454 439.379 2.16863 437.998 3.2915 437.45L24.2898 427.268C25.4127 426.72 26.7508 427.22 27.2819 428.379L28.6267 431.335C29.1579 432.501 28.6737 433.882 27.5508 434.424Z" stroke="white" stroke-opacity="0.06" stroke-width="4" stroke-miterlimit="10" stroke-linecap="round"/>
<path d="M35.7066 457.549L25.4327 435.465L8.81152 443.703L19.0855 465.787L25.5672 502.737C27.6986 507.324 33.0305 509.254 37.4682 507.054L55.414 498.156C59.8584 495.956 61.7276 490.452 59.5962 485.872L35.7066 457.549Z" stroke="white" stroke-opacity="0.06" stroke-width="4" stroke-miterlimit="10" stroke-linecap="round"/>
<path d="M22.0037 482.45C22.0037 482.45 25.4328 476.718 34.5502 477.044C43.6677 477.37 45.2007 468.799 45.2007 468.799" stroke="white" stroke-opacity="0.06" stroke-width="4" stroke-miterlimit="10" stroke-linecap="round"/>
<path d="M56.7852 77.2301C64.7617 77.2301 71.2278 70.5557 71.2278 62.3224C71.2278 54.0892 64.7617 47.4148 56.7852 47.4148C48.8088 47.4148 42.3425 54.0892 42.3425 62.3224C42.3425 70.5557 48.8088 77.2301 56.7852 77.2301Z" stroke="white" stroke-opacity="0.06" stroke-width="4" stroke-miterlimit="10" stroke-linecap="round" stroke-linejoin="round"/>
<path d="M77.0306 91.9573C80.2205 91.9573 82.8063 89.2881 82.8063 85.9956C82.8063 82.7031 80.2205 80.0339 77.0306 80.0339C73.8408 80.0339 71.2549 82.7031 71.2549 85.9956C71.2549 89.2881 73.8408 91.9573 77.0306 91.9573Z" stroke="white" stroke-opacity="0.06" stroke-width="4" stroke-miterlimit="10" stroke-linecap="round" stroke-linejoin="round"/>
</svg>
