<svg width="17" height="17" viewBox="0 0 17 17" fill="none" xmlns="http://www.w3.org/2000/svg">
<path d="M11.5118 0.490009H5.50425C4.59645 0.490009 3.75273 0.71963 2.97309 1.17887C2.21481 1.61675 1.61673 2.21483 1.17885 2.97311C0.71961 3.74207 0.48999 4.58045 0.48999 5.48825V11.4957C0.48999 12.4035 0.71961 13.2473 1.17885 14.0269C1.61673 14.7852 2.21481 15.3833 2.97309 15.8211C3.75273 16.2804 4.59645 16.51 5.50425 16.51H11.5118C12.4195 16.51 13.2579 16.2804 14.0269 15.8211C14.7852 15.3833 15.3833 14.7852 15.8211 14.0269C16.2804 13.2473 16.51 12.4035 16.51 11.4957V5.48825C16.51 4.58045 16.2804 3.74207 15.8211 2.97311C15.3833 2.21483 14.7852 1.61675 14.0269 1.17887C13.2579 0.71963 12.4195 0.490009 11.5118 0.490009ZM15.0041 11.4957C15.0041 12.1259 14.8466 12.7106 14.5315 13.2499C14.2165 13.7893 13.7919 14.2165 13.2579 14.5315C12.7239 14.8466 12.1419 15.0041 11.5118 15.0041H5.50425C4.86345 15.0041 4.27605 14.8466 3.74205 14.5315C3.20805 14.2165 2.78352 13.7919 2.46846 13.2579C2.1534 12.7239 1.99587 12.1365 1.99587 11.4957V5.48825C1.99587 4.85813 2.1534 4.27607 2.46846 3.74207C2.78352 3.20807 3.21072 2.78354 3.75006 2.46848C4.2894 2.15342 4.87413 1.99589 5.50425 1.99589H11.5118C12.1419 1.99589 12.7239 2.15342 13.2579 2.46848C13.7919 2.78354 14.2165 3.20807 14.5315 3.74207C14.8466 4.27607 15.0041 4.85813 15.0041 5.48825V11.4957ZM8.49999 4.49501C7.77375 4.49501 7.10358 4.6739 6.48948 5.03168C5.87538 5.38946 5.38944 5.8754 5.03166 6.4895C4.67388 7.1036 4.49499 7.77377 4.49499 8.50001C4.49499 9.22625 4.67388 9.89642 5.03166 10.5105C5.38944 11.1246 5.87538 11.6106 6.48948 11.9683C7.10358 12.3261 7.77375 12.505 8.49999 12.505C9.22623 12.505 9.8964 12.3261 10.5105 11.9683C11.1246 11.6106 11.6105 11.1246 11.9683 10.5105C12.3261 9.89642 12.505 9.22625 12.505 8.50001C12.505 7.77377 12.3261 7.1036 11.9683 6.4895C11.6105 5.8754 11.1246 5.38946 10.5105 5.03168C9.8964 4.6739 9.22623 4.49501 8.49999 4.49501ZM8.49999 10.9991C8.05143 10.9991 7.63491 10.887 7.25043 10.6627C6.86595 10.4384 6.56157 10.134 6.33729 9.74957C6.11301 9.36509 6.00087 8.94857 6.00087 8.50001C6.00087 8.05145 6.11301 7.63493 6.33729 7.25045C6.56157 6.86597 6.86595 6.56159 7.25043 6.33731C7.63491 6.11303 8.05143 6.00089 8.49999 6.00089C8.94855 6.00089 9.36507 6.11303 9.74955 6.33731C10.134 6.56159 10.4384 6.86597 10.6627 7.25045C10.887 7.63493 10.9991 8.05145 10.9991 8.50001C10.9991 8.94857 10.887 9.36509 10.6627 9.74957C10.4384 10.134 10.134 10.4384 9.74955 10.6627C9.36507 10.887 8.94855 10.9991 8.49999 10.9991ZM12.8094 3.66197C12.9589 3.66197 13.0844 3.7127 13.1858 3.81416C13.2873 3.91562 13.338 4.04111 13.338 4.19063C13.338 4.34015 13.2846 4.46831 13.1778 4.57511C13.071 4.68191 12.9455 4.73531 12.8014 4.73531C12.6572 4.73531 12.5317 4.68191 12.4249 4.57511C12.3181 4.46831 12.2647 4.34015 12.2647 4.19063C12.2647 4.04111 12.3181 3.91562 12.4249 3.81416C12.5317 3.7127 12.6599 3.66197 12.8094 3.66197Z" fill="#010305"/>
</svg>
