<svg width="21" height="15" viewBox="0 0 21 15" fill="none" xmlns="http://www.w3.org/2000/svg">
<path d="M18.3961 6.72537C18.8656 6.72537 19.2999 6.60566 19.6989 6.36623C20.0979 6.1268 20.4054 5.80052 20.6214 5.38739C20.2458 5.56578 19.8515 5.6808 19.4383 5.73245C19.0252 5.78409 18.6168 5.76296 18.213 5.66907C18.1849 5.50945 18.1473 5.34983 18.1004 5.19021C17.9501 4.53296 17.6614 3.94378 17.2342 3.42267C16.807 2.90156 16.2906 2.49782 15.685 2.21144C15.0793 1.92507 14.4385 1.78657 13.7625 1.79596L14.2413 1.62695C14.2695 1.61756 14.3493 1.59409 14.4808 1.55653C14.8188 1.47203 15.0629 1.39691 15.2131 1.33119C15.476 1.19974 15.577 1.06124 15.5159 0.915709C15.4549 0.770175 15.2225 0.749049 14.8188 0.852332C14.5934 0.908668 14.2601 1.01665 13.8188 1.17626L13.5231 1.28894C13.8047 1.18565 14.0254 1.08237 14.185 0.979088C14.4385 0.819469 14.5794 0.645766 14.6075 0.457979C13.9972 0.551872 13.462 0.805385 13.0019 1.21852C13.171 1.04951 13.2742 0.847637 13.3118 0.612904C12.6076 1.0542 11.9691 1.75371 11.3964 2.71142C10.9926 3.40623 10.5654 4.34986 10.1147 5.54231C9.65464 5.06345 9.13823 4.65032 8.56548 4.30292C6.86601 3.41093 5.11489 2.641 3.31214 1.99314C3.31214 2.5565 3.47176 3.07526 3.79099 3.54942C4.11023 4.02358 4.53275 4.36395 5.05856 4.57051C4.63604 4.55173 4.21821 4.59868 3.80508 4.71135C3.90836 5.20899 4.11962 5.61743 4.43886 5.93666C4.81443 6.31224 5.36841 6.58453 6.10077 6.75354C5.83787 6.74415 5.58436 6.7864 5.34024 6.88029C5.09611 6.97419 4.88016 7.11503 4.69237 7.30281C4.9365 7.76289 5.29094 8.1056 5.75572 8.33095C6.22049 8.55629 6.70639 8.62202 7.21341 8.52812C6.84723 8.68774 6.6031 8.88022 6.48104 9.10557C6.36837 9.31213 6.36368 9.51635 6.46696 9.71822C6.57024 9.92009 6.74864 10.075 7.00215 10.183C7.25566 10.291 7.53734 10.3215 7.84719 10.2745C7.17116 10.9694 6.37307 11.4482 5.45291 11.7111C4.55153 11.974 3.64546 12.0022 2.73469 11.7956C1.80515 11.5797 0.98358 11.1431 0.269989 10.4858C1.26526 11.8379 2.49526 12.8613 3.96 13.5561C5.31207 14.1946 6.77681 14.5232 8.35422 14.542C9.85651 14.5514 11.3072 14.2791 12.7062 13.7251C14.1052 13.1712 15.2883 12.4012 16.2554 11.4153C17.2788 10.3731 17.9501 9.19477 18.2694 7.88026C18.7294 7.91782 19.1731 7.85444 19.6003 7.69012C20.0275 7.52581 20.4008 7.27934 20.72 6.95071C19.9313 7.06339 19.1567 6.98827 18.3961 6.72537Z" fill="#010305"/>
</svg>
