<svg width="19" height="19" viewBox="0 0 19 19" fill="none" xmlns="http://www.w3.org/2000/svg">
<path d="M17.606 14.6463L14.618 11.6583C14.306 11.3463 13.931 11.1903 13.493 11.1903C13.055 11.1903 12.68 11.3463 12.368 11.6583L11.63 12.4143C11.318 12.7263 10.946 12.8823 10.514 12.8823C10.082 12.8823 9.70998 12.7263 9.39798 12.4143L6.26598 9.33626C5.95398 9.02426 5.79798 8.64926 5.79798 8.21126C5.79798 7.77326 5.95398 7.39826 6.26598 7.08626L7.02198 6.34826C7.33398 6.03626 7.48998 5.66126 7.48998 5.22326C7.48998 4.78526 7.33398 4.41026 7.02198 4.09826L4.03398 1.11026C3.72198 0.798262 3.34698 0.642262 2.90898 0.642262C2.47098 0.642262 2.09598 0.798262 1.78398 1.11026L1.04598 1.86626C0.553976 2.35826 0.241976 3.10226 0.109976 4.09826C-0.0220242 5.09426 0.0439758 6.21026 0.307976 7.44626C0.595976 8.80226 1.06998 10.0953 1.72998 11.3253C2.38998 12.5553 3.20898 13.6593 4.18698 14.6373C5.16498 15.6153 6.26298 16.4283 7.48098 17.0763C8.69898 17.7243 9.98598 18.1803 11.342 18.4443C12.374 18.6483 13.352 18.7083 14.276 18.6243C15.44 18.5163 16.298 18.1863 16.85 17.6343L17.606 16.8963C17.918 16.5843 18.074 16.2093 18.074 15.7713C18.074 15.3333 17.918 14.9583 17.606 14.6463ZM2.53998 1.86626C2.64798 1.75826 2.77398 1.70426 2.91798 1.70426C3.06198 1.70426 3.18798 1.75826 3.29598 1.86626L6.28398 4.85426C6.39198 4.96226 6.44598 5.08826 6.44598 5.23226C6.44598 5.37626 6.39198 5.50226 6.28398 5.61026L5.90598 5.97026L2.17998 2.24426L2.53998 1.86626ZM11.54 17.4183C10.292 17.1783 9.10398 16.7583 7.97598 16.1583C6.84798 15.5583 5.83098 14.8053 4.92498 13.8993C4.01898 12.9933 3.25998 11.9703 2.64798 10.8303C2.03598 9.69026 1.59798 8.49026 1.33398 7.23026C1.14198 6.54626 1.06098 5.84726 1.09098 5.13326C1.12098 4.41926 1.25598 3.72626 1.49598 3.05426L5.18598 6.74426C4.83798 7.27226 4.69698 7.84826 4.76298 8.47226C4.82898 9.09626 5.08398 9.63026 5.52798 10.0743L8.65998 13.1523C9.10398 13.5963 9.63498 13.8483 10.253 13.9083C10.871 13.9683 11.444 13.8303 11.972 13.4943L15.68 17.1843C15.02 17.4243 14.336 17.5653 13.628 17.6073C12.92 17.6493 12.224 17.5863 11.54 17.4183ZM16.85 16.1403L16.49 16.5183L12.746 12.7743L13.124 12.4143C13.22 12.3183 13.343 12.2703 13.493 12.2703C13.643 12.2703 13.766 12.3183 13.862 12.4143L16.85 15.4023C16.946 15.4983 16.994 15.6213 16.994 15.7713C16.994 15.9213 16.946 16.0443 16.85 16.1403ZM10.154 0.660261C10.01 0.660261 9.88398 0.711262 9.77598 0.813261C9.66798 0.91526 9.61398 1.04126 9.61398 1.19126C9.61398 1.34126 9.66798 1.46726 9.77598 1.56926C9.88398 1.67126 10.01 1.72226 10.154 1.72226C11.39 1.72226 12.542 2.03426 13.61 2.65826C14.642 3.27026 15.464 4.09226 16.076 5.12426C16.7 6.19226 17.012 7.34426 17.012 8.58026C17.012 8.72426 17.063 8.84726 17.165 8.94926C17.267 9.05126 17.39 9.10226 17.534 9.10226C17.678 9.10226 17.801 9.05126 17.903 8.94926C18.005 8.84726 18.056 8.72426 18.056 8.58026C18.056 7.15226 17.696 5.82026 16.976 4.58426C16.28 3.39626 15.338 2.44826 14.15 1.74026C12.914 1.02026 11.582 0.660261 10.154 0.660261ZM10.154 2.76626C10.01 2.76626 9.88398 2.81726 9.77598 2.91926C9.66798 3.02126 9.61398 3.14726 9.61398 3.29726C9.61398 3.44726 9.66798 3.57326 9.77598 3.67526C9.88398 3.77726 10.01 3.82826 10.154 3.82826C11.018 3.82826 11.813 4.04126 12.539 4.46726C13.265 4.89326 13.841 5.46926 14.267 6.19526C14.693 6.92126 14.906 7.71626 14.906 8.58026C14.906 8.72426 14.957 8.84726 15.059 8.94926C15.161 9.05126 15.284 9.10226 15.428 9.10226C15.572 9.10226 15.695 9.05126 15.797 8.94926C15.899 8.84726 15.95 8.72426 15.95 8.58026C15.95 7.52426 15.686 6.54626 15.158 5.64626C14.642 4.77026 13.952 4.07426 13.088 3.55826C12.188 3.03026 11.21 2.76626 10.154 2.76626ZM10.154 4.87226C10.01 4.87226 9.88398 4.92326 9.77598 5.02526C9.66798 5.12726 9.61398 5.25326 9.61398 5.40326C9.61398 5.55326 9.66798 5.67926 9.77598 5.78126C9.88398 5.88326 10.01 5.93426 10.154 5.93426C10.634 5.93426 11.072 6.05426 11.468 6.29426C11.864 6.53426 12.182 6.85226 12.422 7.24826C12.662 7.64426 12.782 8.08226 12.782 8.56226C12.782 8.70626 12.833 8.82926 12.935 8.93126C13.037 9.03326 13.163 9.08426 13.313 9.08426C13.463 9.08426 13.589 9.03326 13.691 8.93126C13.793 8.82926 13.844 8.70626 13.844 8.56226C13.844 7.89026 13.679 7.27226 13.349 6.70826C13.019 6.14426 12.572 5.69726 12.008 5.36726C11.444 5.03726 10.826 4.87226 10.154 4.87226ZM10.154 6.99626C10.01 6.99626 9.88698 7.04726 9.78498 7.14926C9.68298 7.25126 9.63198 7.37426 9.63198 7.51826C9.63198 7.66226 9.68298 7.78526 9.78498 7.88726C9.88698 7.98926 10.01 8.04026 10.154 8.04026C10.298 8.04026 10.421 8.09426 10.523 8.20226C10.625 8.31026 10.676 8.43626 10.676 8.58026C10.676 8.72426 10.727 8.85026 10.829 8.95826C10.931 9.06626 11.057 9.11726 11.207 9.11126C11.357 9.10526 11.483 9.05126 11.585 8.94926C11.687 8.84726 11.738 8.72426 11.738 8.58026C11.738 8.14826 11.582 7.77626 11.27 7.46426C10.958 7.15226 10.586 6.99626 10.154 6.99626Z" fill="#010305"/>
</svg>
